<?xml version="1.0" encoding="utf-8"?>
<!-- Generator: Adobe Illustrator 24.0.1, SVG Export Plug-In . SVG Version: 6.00 Build 0)  -->
<svg version="1.1" id="Layer_1" xmlns="http://www.w3.org/2000/svg" xmlns:xlink="http://www.w3.org/1999/xlink" x="0px" y="0px"
	 viewBox="0 0 45 45" style="enable-background:new 0 0 45 45;" xml:space="preserve">
<style type="text/css">
	.st0{display:none;}
	.st1{fill:#FFA337;}
</style>
<path d="M17.7,8.7c2.1-3.7,7.5-3.7,9.6,0l6.9,11.9L41,32.4c2.1,3.7-0.5,8.3-4.8,8.3H22.5H8.8c-4.3,0-7-4.6-4.8-8.3l6.9-11.9
	L17.7,8.7z"/>
<g id="Layer_6" class="st0">
</g>
<g>
	<g>
		<path d="M36.2,39.8H8.8c-1.6,0-3.1-0.9-3.9-2.3c-0.8-1.4-0.8-3.1,0-4.6L18.6,9.2c0.8-1.4,2.3-2.3,3.9-2.3c1.6,0,3.1,0.9,3.9,2.3
			l13.7,23.8c0.8,1.4,0.8,3.1,0,4.6C39.3,38.9,37.9,39.8,36.2,39.8z M22.5,7.9c-1.3,0-2.4,0.7-3.1,1.8L5.7,33.4
			c-0.6,1.1-0.6,2.4,0,3.6c0.6,1.1,1.8,1.8,3.1,1.8h27.5c1.3,0,2.4-0.7,3.1-1.8c0.6-1.1,0.6-2.4,0-3.6L25.6,9.7
			C24.9,8.5,23.8,7.9,22.5,7.9z"/>
	</g>
</g>
<g>
	<path class="st1" d="M8.8,39.3c-1.5,0-2.8-0.8-3.5-2c-0.7-1.3-0.7-2.8,0-4.1L19,9.4c0.7-1.3,2-2,3.5-2c1.5,0,2.8,0.8,3.5,2
		l13.7,23.8c0.7,1.3,0.7,2.8,0,4.1c-0.7,1.3-2,2-3.5,2H8.8z"/>
</g>
<g>
	<path d="M21.3,35.9c-0.3-0.3-0.5-0.8-0.5-1.2c0-0.5,0.2-0.9,0.5-1.2c0.3-0.3,0.7-0.5,1.2-0.5c0.5,0,0.9,0.2,1.2,0.5
		c0.3,0.3,0.5,0.7,0.5,1.2c0,0.5-0.2,0.9-0.5,1.2c-0.3,0.3-0.7,0.5-1.2,0.5C22,36.5,21.6,36.3,21.3,35.9z M20.9,28.6l-0.5-13.1
		c0-3.2,4.3-3.2,4.3,0l-0.5,13.1C24.1,31.4,20.9,31.4,20.9,28.6z"/>
</g>
</svg>
