<?xml version="1.0" encoding="utf-8"?>
<!-- Generator: Adobe Illustrator 24.0.1, SVG Export Plug-In . SVG Version: 6.00 Build 0)  -->
<svg version="1.1" id="Layer_1" xmlns="http://www.w3.org/2000/svg" xmlns:xlink="http://www.w3.org/1999/xlink" x="0px" y="0px"
	 viewBox="0 0 28.2 30" style="enable-background:new 0 0 28.2 30;" xml:space="preserve">
<style type="text/css">
	.st0{opacity:0.26;}
	.st1{fill:#277FAE;}
</style>
<g class="st0">
	<g>
		<g>
			<path d="M14.8,8.6c-3.5,0-6,1.1-6,4.9c0,1.2,0,2.5,0,3.7c0,1.7,0.7,2.8,2.3,2.8c0,2,0,4,0,6c0,2.7,1.5,4,3.8,4s3.7-1.3,3.7-4
				c0-2,0-4,0-6c1.6,0,2.3-1.1,2.3-2.8c0-1.2,0-2.5,0-3.7C20.8,9.7,18.3,8.6,14.8,8.6z"/>
			<path d="M22.8,9.6c-0.5,0-1.1,0-1.6,0.1c0.8,1.1,1,2.5,1.1,3.8v3.7c0,2.3-1,3.5-2.3,4V26c0,0.5-0.1,1-0.1,1.4
				c0.6,1,1.6,1.5,2.9,1.5c2.1,0,3.4-1.1,3.4-3.6c0-1.8,0-3.6,0-5.4c1.5,0,2.1-1,2.1-2.5c0-1.1,0-2.3,0-3.3
				C28.2,10.6,26,9.6,22.8,9.6z"/>
			<path d="M9.5,26v-4.8c-1.3-0.5-2.3-1.7-2.3-4v-3.7c0-1.3,0.3-2.6,1-3.8C7.7,9.7,7.2,9.6,6.6,9.6c-3.2,0-5.4,1-5.5,4.4
				c0,1.1,0,2.3,0,3.3C1.1,19,1.7,20,3.2,20c0,1.8,0,3.6,0,5.4c0,2.4,1.3,3.6,3.4,3.6c1.4,0,2.5-0.6,3-1.7C9.5,26.9,9.5,26.5,9.5,26
				z"/>
			<path d="M18.4,4.2c0,2-1.7,3.7-3.7,3.7S11,6.2,11,4.2c0.2-2,1.9-3.7,3.7-3.7C17.2,0.7,18.4,2.4,18.4,4.2z"/>
			<path d="M6.6,2c1.9,0,3.2,1.4,3.2,3.2c0,1.9-1.5,3.4-3.2,3.4S3.4,7.1,3.4,5.4C3.2,3.6,4.8,2,6.6,2z"/>
			<path d="M22.9,2c1.9,0,3.2,1.4,3.2,3.2c0,1.9-1.4,3.2-3.2,3.2c-1.9,0-3.4-1.5-3.4-3.2C19.6,3.4,21.2,2,22.9,2z"/>
		</g>
	</g>
</g>
<g>
	<g>
		<g>
			<path class="st1" d="M13.8,8.1c-3.5,0-6,1.1-6,4.9c0,1.2,0,2.5,0,3.7c0,1.7,0.7,2.8,2.3,2.8c0,2,0,4,0,6c0,2.7,1.5,4,3.8,4
				s3.8-1.3,3.8-4c0-2,0-4,0-6c1.6,0,2.3-1.1,2.3-2.8c0-1.2,0-2.5,0-3.7C19.8,9.2,17.3,8.1,13.8,8.1z"/>
			<path class="st1" d="M21.8,9.1c-0.5,0-1.1,0-1.6,0.1c0.8,1.1,1,2.5,1.1,3.8v3.7c0,2.3-1,3.5-2.3,4v4.8c0,0.5-0.1,1-0.1,1.4
				c0.6,1,1.6,1.5,2.9,1.5c2.1,0,3.4-1.1,3.4-3.6c0-1.8,0-3.6,0-5.4c1.5,0,2.1-1,2.1-2.5c0-1.1,0-2.3,0-3.3
				C27.2,10.1,25,9.1,21.8,9.1z"/>
			<path class="st1" d="M8.5,25.5v-4.8c-1.3-0.5-2.3-1.7-2.3-4V13c0-1.3,0.3-2.6,1-3.8C6.7,9.1,6.2,9.1,5.6,9.1
				c-3.2,0-5.4,1-5.5,4.4c0,1.1,0,2.3,0,3.3c0,1.5,0.6,2.5,2.1,2.5c0,1.8,0,3.6,0,5.4c0,2.4,1.3,3.6,3.4,3.6c1.4,0,2.5-0.6,3-1.7
				C8.5,26.4,8.5,25.9,8.5,25.5z"/>
			<path class="st1" d="M17.4,3.7c0,2-1.7,3.7-3.7,3.7S10,5.7,10,3.7c0.2-2,1.9-3.7,3.7-3.7C16.2,0.2,17.4,1.9,17.4,3.7z"/>
			<path class="st1" d="M5.6,1.5c1.9,0,3.2,1.4,3.2,3.2c0,1.9-1.5,3.4-3.2,3.4S2.4,6.6,2.4,4.9C2.2,3.1,3.8,1.5,5.6,1.5z"/>
			<path class="st1" d="M21.9,1.5c1.9,0,3.2,1.4,3.2,3.2c0,1.9-1.4,3.2-3.2,3.2c-1.9,0-3.4-1.5-3.4-3.2C18.6,2.9,20.2,1.5,21.9,1.5z
				"/>
		</g>
	</g>
</g>
</svg>
