<?xml version="1.0" encoding="utf-8"?>
<!-- Generator: Adobe Illustrator 24.0.1, SVG Export Plug-In . SVG Version: 6.00 Build 0)  -->
<svg version="1.1" id="Layer_1" xmlns="http://www.w3.org/2000/svg" xmlns:xlink="http://www.w3.org/1999/xlink" x="0px" y="0px"
     viewBox="0 0 30.5 29.7" style="enable-background:new 0 0 30.5 29.7;" xml:space="preserve">
<style type="text/css">
	.st0{fill:#FFFFFF;}
</style>
    <path class="st0" d="M23.4,15.1c-1.4,0-2.6,1.2-2.6,2.6c0,1.5,1.2,2.7,2.6,2.7h4v-5.3H23.4z M24.2,18.9c-0.6,0-1.2-0.5-1.2-1.2
	s0.5-1.1,1.2-1.1c0.6,0,1.1,0.5,1.1,1.1S24.8,18.9,24.2,18.9z"/>
    <path class="st0" d="M23.4,14.1h4v-4c0-1.1-0.9-2-2-2H5.1c-1.1,0-2,0.9-2,2v15.4c0,1.1,0.9,2,2,2h20.3c1.1,0,2-0.9,2-2v-4.1h-4
	c-2,0-3.6-1.7-3.6-3.7S21.4,14.1,23.4,14.1z M6.9,23c0,0.1-0.1,0.2-0.2,0.2H6.1c-0.1,0-0.2-0.1-0.2-0.2v-1.6c0-0.1,0.1-0.2,0.2-0.2
	h0.6c0.1,0,0.2,0.1,0.2,0.2V23z M6.9,18.3c0,0.1-0.1,0.2-0.2,0.2H6.1c-0.1,0-0.2-0.1-0.2-0.2v-1.6c0-0.1,0.1-0.2,0.2-0.2h0.6
	c0.1,0,0.2,0.1,0.2,0.2V18.3z M6.9,13.6c0,0.1-0.1,0.2-0.2,0.2H6.1c-0.1,0-0.2-0.1-0.2-0.2V12c0-0.1,0.1-0.2,0.2-0.2h0.6
	c0.1,0,0.2,0.1,0.2,0.2V13.6z"/>
</svg>
