<?xml version="1.0" encoding="utf-8"?>
<!-- Generator: Adobe Illustrator 24.0.1, SVG Export Plug-In . SVG Version: 6.00 Build 0)  -->
<svg version="1.1" id="Layer_1" xmlns="http://www.w3.org/2000/svg" xmlns:xlink="http://www.w3.org/1999/xlink" x="0px" y="0px"
	 viewBox="0 0 333.2 62.4" enable-background="new 0 0 333.2 62.4" xml:space="preserve">
<g opacity="0.25">
	<path d="M196.8,43.6c0.8,0.9,1.3,2.2,1.3,3.6V50c0,2.8-2.3,5.1-5.1,5.1h-9.2c-2.8,0-5.1-2.3-5.1-5.1v-1.7c0-0.8,0.7-1.5,1.5-1.5
		c0.8,0,1.5,0.7,1.5,1.5V50c0,1.1,0.9,2.1,2,2.1h9.2c1.2,0,2.1-0.9,2.1-2.1v-2.8c0-1.1-0.7-1.9-0.9-2.1h-10.4
		c-0.8,0-1.4-0.6-1.5-1.4c0-0.9,0.7-1.6,1.5-1.6h10.4c0.3-0.3,0.9-1.1,0.9-2.1v-3.4c0-1.1-0.9-2-2.1-2h-9.2c-1.1,0-2,0.9-2,2v1.7
		c0,0.8-0.7,1.5-1.5,1.5c-0.9,0-1.5-0.7-1.5-1.5v-1.7c0-2.8,2.3-5.1,5.1-5.1h9.2c2.8,0,5.1,2.3,5.1,5.1V40
		C198.1,41.4,197.5,42.7,196.8,43.6z"/>
</g>
<g>
	<g>
		<g>
			<g>
				<g>
					<path opacity="0.58" fill="#FFFFFF" enable-background="new    " d="M228.9,18.8h2.3l2.5,2.5l-2.5,2.5h-2.3l2.5-2.5L228.9,18.8
						z M226.5,21.3l-2.5,2.5h2.3l2.5-2.5l-2.5-2.5H224L226.5,21.3z M221.6,21.3l-2.5,2.5h2.3l2.5-2.5l-2.5-2.5h-2.3L221.6,21.3z
						 M216.7,21.3l-2.5,2.5h2.3l2.5-2.5l-2.5-2.5h-2.3L216.7,21.3z M211.8,21.3l-2.5,2.5h2.3l2.5-2.5l-2.5-2.5h-2.3L211.8,21.3z
						 M206.9,21.3l-2.5,2.5h2.3l2.5-2.5l-2.5-2.5h-2.3L206.9,21.3z M202,21.3l-2.5,2.5h2.3l2.5-2.5l-2.5-2.5h-2.3L202,21.3z
						 M197.1,21.3l-2.5,2.5h2.3l2.5-2.5l-2.5-2.5h-2.3L197.1,21.3z M192.2,21.3l-2.5,2.5h2.3l2.5-2.5l-2.5-2.5h-2.3L192.2,21.3z
						 M187.3,21.3l-2.5,2.5h2.3l2.5-2.5l-2.5-2.5h-2.3L187.3,21.3z"/>
					<path fill="#29ABE2" d="M322.7,39.1l-7,7h6.4l7-7l-7-7h-6.4L322.7,39.1z M309,39.1l-7,7h6.4l7-7l-7-7H302L309,39.1z
						 M295.2,39.1l-7,7h6.4l7-7l-7-7h-6.4L295.2,39.1z M281.4,39.1l-7,7h6.4l7-7l-7-7h-6.4L281.4,39.1z M267.7,39.1l-7,7h6.4l7-7
						l-7-7h-6.4L267.7,39.1z M253.9,39.1l-7,7h6.4l7-7l-7-7h-6.4L253.9,39.1z M240.1,39.1l-7,7h6.4l7-7l-7-7h-6.4L240.1,39.1z
						 M226.4,39.1l-7,7h6.4l7-7l-7-7h-6.4L226.4,39.1z M212.6,39.1l-7,7h6.4l7-7l-7-7h-6.4L212.6,39.1z"/>
				</g>
			</g>
		</g>
	</g>
	<g>
		<g opacity="0.26">
			<path d="M164.3,46.7l-6.3-5.8c-0.3-0.3-0.5-0.6-0.5-1c0-0.2,0.1-0.4,0.2-0.6c0.1-0.2,0.2-0.4,0.4-0.5s0.4-0.3,0.6-0.3
				c0.2-0.1,0.5-0.1,0.8-0.1c0.6,0,1.1,0.2,1.5,0.5l5.9,5.5l5.9-5.5c0.4-0.3,0.9-0.5,1.5-0.5c0.3,0,0.6,0,0.8,0.1s0.5,0.2,0.6,0.3
				s0.3,0.3,0.4,0.5c0.1,0.2,0.2,0.4,0.2,0.6c0,0.4-0.2,0.7-0.5,1l-6.3,5.8l6.4,5.9c0.3,0.3,0.4,0.6,0.4,1c0,0.2-0.1,0.4-0.2,0.6
				c-0.1,0.2-0.3,0.4-0.4,0.5c-0.2,0.1-0.4,0.3-0.6,0.3s-0.5,0.1-0.8,0.1c-0.6,0-1-0.2-1.5-0.5l-5.9-5.5l-6,5.5
				c-0.4,0.3-0.9,0.5-1.4,0.5c-0.3,0-0.6,0-0.8-0.1s-0.5-0.2-0.6-0.3c-0.2-0.1-0.3-0.3-0.4-0.5c-0.1-0.2-0.2-0.4-0.2-0.6
				c0-0.4,0.1-0.7,0.4-1L164.3,46.7z"/>
		</g>
		<g>
			<g>
				<path fill="#FF6CC5" d="M163.3,45.7l-6.3-5.8c-0.3-0.3-0.5-0.6-0.5-1c0-0.2,0.1-0.4,0.2-0.6c0.1-0.2,0.2-0.4,0.4-0.5
					s0.4-0.3,0.6-0.3c0.2-0.1,0.5-0.1,0.8-0.1c0.6,0,1.1,0.2,1.5,0.5l5.9,5.5l5.9-5.5c0.4-0.3,0.9-0.5,1.5-0.5c0.3,0,0.6,0,0.8,0.1
					s0.5,0.2,0.6,0.3s0.3,0.3,0.4,0.5c0.1,0.2,0.2,0.4,0.2,0.6c0,0.4-0.2,0.7-0.5,1l-6.3,5.8l6.4,5.9c0.3,0.3,0.4,0.6,0.4,1
					c0,0.2-0.1,0.4-0.2,0.6c-0.1,0.2-0.3,0.4-0.4,0.5c-0.2,0.1-0.4,0.3-0.6,0.3s-0.5,0.1-0.8,0.1c-0.6,0-1-0.2-1.5-0.5l-5.9-5.5
					l-6,5.5c-0.4,0.3-0.9,0.5-1.4,0.5c-0.3,0-0.6,0-0.8-0.1s-0.5-0.2-0.6-0.3c-0.2-0.1-0.3-0.3-0.4-0.5c-0.1-0.2-0.2-0.4-0.2-0.6
					c0-0.4,0.1-0.7,0.4-1L163.3,45.7z"/>
			</g>
		</g>
	</g>
</g>
<g>
	<g opacity="0.25">
		<path d="M44.2,12.2c0.7,0,1.3,0.6,1.3,1.3c0,0.7-0.6,1.3-1.3,1.3H32.5c-1,0-1.7,0.8-1.7,1.7v4.3h12.1c0.7,0,1.3,0.6,1.3,1.3
			c0,0.8-0.6,1.3-1.3,1.3H30.8v7.7c0,0.7-0.6,1.3-1.3,1.3c-0.7,0-1.3-0.6-1.3-1.3V16.6c0-2.4,2-4.4,4.4-4.4H44.2z"/>
		<path d="M63.4,12.3c2.4,0,4.4,2,4.4,4.4v11.6c0,2.4-2,4.4-4.4,4.4H52c-2.4,0-4.4-2-4.4-4.4V16.6c0-2.4,2-4.4,4.4-4.4H63.4z
			 M50.3,28.2c0,0.9,0.8,1.7,1.7,1.7h11.4c1,0,1.7-0.8,1.7-1.7V16.6c0-0.9-0.8-1.7-1.7-1.7H52c-0.9,0-1.7,0.8-1.7,1.7V28.2z"/>
		<path d="M89.8,16.6v4.1c0,2.4-1.9,4.3-4.3,4.4c0.6,1.4,1.6,3.9,2.3,5.6c0.1,0.2,0.1,0.3,0.1,0.5c0,0.5-0.4,1-0.8,1.2
			c-0.2,0.1-0.3,0.1-0.5,0.1c-0.5,0-1-0.3-1.2-0.8l-2.6-6.6h-9v6.1c0,0.7-0.6,1.3-1.3,1.3c-0.7,0-1.3-0.6-1.3-1.3V16.6
			c0-2.4,2-4.4,4.4-4.4h10C87.8,12.2,89.8,14.2,89.8,16.6z M87.2,16.6c0-0.9-0.8-1.7-1.8-1.7h-10c-1,0-1.7,0.8-1.7,1.7v5.9h11.8
			c1,0,1.8-0.8,1.8-1.7V16.6z"/>
		<path d="M109.5,12.3c0.7,0,1.3,0.6,1.3,1.3c0,0.7-0.6,1.3-1.3,1.3H97.4c-1,0-1.8,0.8-1.8,1.7v2.7c0,0.9,0.8,1.7,1.8,1.7h9.1
			c2.4,0,4.3,2,4.3,4.4v2.7c0,2.4-2,4.4-4.3,4.4H94.3c-0.7,0-1.3-0.6-1.3-1.3c0-0.7,0.6-1.3,1.3-1.3h12.1c0.9,0,1.7-0.8,1.7-1.7
			v-2.7c0-1-0.8-1.7-1.7-1.7h-9.1c-2.4,0-4.4-2-4.4-4.4v-2.7c0-2.4,2-4.4,4.4-4.4H109.5z"/>
		<path d="M128.2,12.2c2.4,0,4.4,2,4.4,4.4v14.6c0,0.7-0.6,1.3-1.3,1.3c-0.7,0-1.3-0.6-1.3-1.3v-7.7H117v7.7c0,0.7-0.6,1.3-1.3,1.3
			c-0.7,0-1.3-0.6-1.3-1.3V16.6c0-2.4,2-4.4,4.4-4.4H128.2z M117,20.9h12.9v-4.3c0-1-0.8-1.7-1.7-1.7h-9.5c-1,0-1.7,0.8-1.7,1.7
			V20.9z"/>
		<path d="M153.8,12.2c0.7,0,1.3,0.6,1.3,1.3c0,0.7-0.6,1.3-1.3,1.3h-13.4c-1,0-1.8,0.8-1.8,1.9V28c0,1,0.8,1.9,1.8,1.9h10.2
			c1,0,1.9-0.8,1.9-1.9v-4.5h-9.4c-0.7,0-1.3-0.6-1.3-1.3s0.6-1.3,1.3-1.3h10.7c0.7,0,1.3,0.5,1.3,1.3V28c0,2.5-2,4.5-4.5,4.5h-10.2
			c-2.5,0-4.5-2-4.5-4.5V16.8c0-2.5,2-4.5,4.5-4.5H153.8z"/>
		<path d="M174.3,29.9c0.7,0,1.3,0.6,1.3,1.3c0,0.7-0.6,1.3-1.3,1.3h-11.5c-2.4,0-4.4-2-4.4-4.4V16.6c0-2.4,2-4.4,4.4-4.4h11.5
			c0.7,0,1.3,0.6,1.3,1.3c0,0.7-0.6,1.3-1.3,1.3h-11.5c-0.9,0-1.7,0.8-1.7,1.7v4.3h13c0.7,0,1.3,0.6,1.3,1.3c0,0.7-0.6,1.3-1.3,1.3
			h-13v4.7c0,0.9,0.8,1.7,1.7,1.7H174.3z"/>
	</g>
	<g>
		<path fill="#FFFFFF" d="M43.5,11.6c0.7,0,1.3,0.6,1.3,1.3c0,0.7-0.6,1.3-1.3,1.3H31.9c-1,0-1.7,0.8-1.7,1.7v4.3h12.1
			c0.7,0,1.3,0.6,1.3,1.3c0,0.8-0.6,1.3-1.3,1.3H30.1v7.7c0,0.7-0.6,1.3-1.3,1.3c-0.7,0-1.3-0.6-1.3-1.3V15.9c0-2.4,2-4.4,4.4-4.4
			H43.5z"/>
		<path fill="#FFFFFF" d="M62.8,11.6c2.4,0,4.4,2,4.4,4.4v11.6c0,2.4-2,4.4-4.4,4.4H51.4c-2.4,0-4.4-2-4.4-4.4V15.9
			c0-2.4,2-4.4,4.4-4.4H62.8z M49.7,27.5c0,0.9,0.8,1.7,1.7,1.7h11.4c1,0,1.7-0.8,1.7-1.7V15.9c0-0.9-0.8-1.7-1.7-1.7H51.4
			c-0.9,0-1.7,0.8-1.7,1.7V27.5z"/>
		<path fill="#FFFFFF" d="M89.2,15.9v4.1c0,2.4-1.9,4.3-4.3,4.4c0.6,1.4,1.6,3.9,2.3,5.6c0.1,0.2,0.1,0.3,0.1,0.5
			c0,0.5-0.4,1-0.8,1.2c-0.2,0.1-0.3,0.1-0.5,0.1c-0.5,0-1-0.3-1.2-0.8l-2.6-6.6h-9v6.1c0,0.7-0.6,1.3-1.3,1.3
			c-0.7,0-1.3-0.6-1.3-1.3V15.9c0-2.4,2-4.4,4.4-4.4h10C87.2,11.6,89.2,13.5,89.2,15.9z M86.6,15.9c0-0.9-0.8-1.7-1.8-1.7h-10
			c-1,0-1.7,0.8-1.7,1.7v5.9h11.8c1,0,1.8-0.8,1.8-1.7V15.9z"/>
		<path fill="#FFFFFF" d="M108.9,11.6c0.7,0,1.3,0.6,1.3,1.3c0,0.7-0.6,1.3-1.3,1.3H96.8c-1,0-1.8,0.8-1.8,1.7v2.7
			c0,0.9,0.8,1.7,1.8,1.7h9.1c2.4,0,4.3,2,4.3,4.4v2.7c0,2.4-2,4.4-4.3,4.4H93.7c-0.7,0-1.3-0.6-1.3-1.3c0-0.7,0.6-1.3,1.3-1.3h12.1
			c0.9,0,1.7-0.8,1.7-1.7v-2.7c0-1-0.8-1.7-1.7-1.7h-9.1c-2.4,0-4.4-2-4.4-4.4v-2.7c0-2.4,2-4.4,4.4-4.4H108.9z"/>
		<path fill="#FFFFFF" d="M127.5,11.6c2.4,0,4.4,2,4.4,4.4v14.6c0,0.7-0.6,1.3-1.3,1.3s-1.3-0.6-1.3-1.3v-7.7h-12.9v7.7
			c0,0.7-0.6,1.3-1.3,1.3c-0.7,0-1.3-0.6-1.3-1.3V15.9c0-2.4,2-4.4,4.4-4.4H127.5z M116.3,20.2h12.9v-4.3c0-1-0.8-1.7-1.7-1.7h-9.5
			c-1,0-1.7,0.8-1.7,1.7V20.2z"/>
		<path fill="#FFFFFF" d="M153.2,11.6c0.7,0,1.3,0.6,1.3,1.3c0,0.7-0.6,1.3-1.3,1.3h-13.4c-1,0-1.8,0.8-1.8,1.9v11.3
			c0,1,0.8,1.9,1.8,1.9H150c1,0,1.9-0.8,1.9-1.9v-4.5h-9.4c-0.7,0-1.3-0.6-1.3-1.3s0.6-1.3,1.3-1.3h10.7c0.7,0,1.3,0.5,1.3,1.3v5.8
			c0,2.5-2,4.5-4.5,4.5h-10.2c-2.5,0-4.5-2-4.5-4.5V16.1c0-2.5,2-4.5,4.5-4.5H153.2z"/>
		<path fill="#FFFFFF" d="M173.7,29.3c0.7,0,1.3,0.6,1.3,1.3c0,0.7-0.6,1.3-1.3,1.3h-11.5c-2.4,0-4.4-2-4.4-4.4V15.9
			c0-2.4,2-4.4,4.4-4.4h11.5c0.7,0,1.3,0.6,1.3,1.3c0,0.7-0.6,1.3-1.3,1.3h-11.5c-0.9,0-1.7,0.8-1.7,1.7v4.3h13
			c0.7,0,1.3,0.6,1.3,1.3c0,0.7-0.6,1.3-1.3,1.3h-13v4.7c0,0.9,0.8,1.7,1.7,1.7H173.7z"/>
	</g>
</g>
<g>
	<path fill="#FF6CC5" d="M195.8,42.6c0.8,0.9,1.3,2.2,1.3,3.6V49c0,2.8-2.3,5.1-5.1,5.1h-9.2c-2.8,0-5.1-2.3-5.1-5.1v-1.7
		c0-0.8,0.7-1.5,1.5-1.5c0.8,0,1.5,0.7,1.5,1.5V49c0,1.1,0.9,2.1,2,2.1h9.2c1.2,0,2.1-0.9,2.1-2.1v-2.8c0-1.1-0.7-1.9-0.9-2.1h-10.4
		c-0.8,0-1.4-0.6-1.5-1.4c0-0.9,0.7-1.6,1.5-1.6h10.4c0.3-0.3,0.9-1.1,0.9-2.1v-3.4c0-1.1-0.9-2-2.1-2h-9.2c-1.1,0-2,0.9-2,2v1.7
		c0,0.8-0.7,1.5-1.5,1.5c-0.9,0-1.5-0.7-1.5-1.5v-1.7c0-2.8,2.3-5.1,5.1-5.1h9.2c2.8,0,5.1,2.3,5.1,5.1V39
		C197.1,40.4,196.5,41.7,195.8,42.6z"/>
</g>
</svg>
