<?xml version="1.0" encoding="utf-8"?>
<!-- Generator: Adobe Illustrator 24.0.1, SVG Export Plug-In . SVG Version: 6.00 Build 0)  -->
<svg version="1.1" id="Layer_1" xmlns="http://www.w3.org/2000/svg" xmlns:xlink="http://www.w3.org/1999/xlink" x="0px" y="0px"
	 viewBox="0 0 333.2 62.4" style="enable-background:new 0 0 333.2 62.4;" xml:space="preserve">
<style type="text/css">
	.st0{opacity:0.2;}
	.st1{opacity:0.58;fill:#FFFFFF;enable-background:new    ;}
	.st2{fill:#29ABE2;}
	.st3{opacity:0.26;}
	.st4{fill:#FFA243;}
	.st5{opacity:0.25;}
	.st6{fill:#FFFFFF;}
</style>
<g class="st0">
	<path d="M196.4,35.1c0.7,0,1.3,0.6,1.3,1.3s-0.6,1.3-1.3,1.3h-13.2c-1,0-1.8,0.8-1.8,1.8v11.1c0,1,0.8,1.8,1.8,1.8h10
		c1,0,1.8-0.8,1.8-1.8v-4.4h-9.3c-0.7,0-1.3-0.6-1.3-1.3c0-0.7,0.6-1.2,1.3-1.2h10.6c0.7,0,1.3,0.5,1.3,1.2v5.7c0,2.4-2,4.4-4.4,4.4
		h-10c-2.4,0-4.4-2-4.4-4.4V39.5c0-2.4,2-4.4,4.4-4.4H196.4z"/>
	<path d="M213.8,42.1c2.3,0,4.2,1.9,4.2,4.2v4.6c0,2.3-1.9,4.2-4.2,4.2h-8.6c-2.3,0-4.2-1.9-4.2-4.2v-4.6c0-2.3,1.9-4.2,4.2-4.2
		H213.8z M203.5,50.9c0,0.9,0.8,1.7,1.6,1.7h8.6c0.9,0,1.7-0.8,1.7-1.7v-4.7c0-0.9-0.8-1.7-1.7-1.7h-8.6c-0.9,0-1.6,0.8-1.6,1.7
		V50.9z"/>
	<path d="M220.3,37c0-0.7,0.5-1.2,1.3-1.2c0.7,0,1.2,0.5,1.2,1.2v14c0,0.9,0.8,1.7,1.6,1.7h2.3c0.7,0,1.2,0.6,1.2,1.2
		c0,0.6-0.6,1.2-1.2,1.2h-2.3c-2.3,0-4.2-1.9-4.2-4.2V37z"/>
	<path d="M243.2,35.7c0.7,0,1.2,0.5,1.2,1.2v14c0,2.3-1.8,4.2-4.1,4.2h-6.7c-2.3,0-4.1-1.9-4.1-4.2v-4.6c0-2.3,1.8-4.2,4.1-4.2h8.4
		V37C242,36.3,242.5,35.7,243.2,35.7z M231.9,50.9c0,0.9,0.8,1.7,1.6,1.7h6.7c1,0,1.7-0.8,1.7-1.7v-6.4h-8.4c-0.9,0-1.6,0.8-1.6,1.7
		V50.9z"/>
</g>
<g>
	<g>
		<g>
			<g>
				<g>
					<path class="st1" d="M228.9,18.8h2.3l2.5,2.5l-2.5,2.5h-2.3l2.5-2.5L228.9,18.8z M226.5,21.3l-2.5,2.5h2.3l2.5-2.5l-2.5-2.5
						H224L226.5,21.3z M221.6,21.3l-2.5,2.5h2.3l2.5-2.5l-2.5-2.5h-2.3L221.6,21.3z M216.7,21.3l-2.5,2.5h2.3l2.5-2.5l-2.5-2.5h-2.3
						L216.7,21.3z M211.8,21.3l-2.5,2.5h2.3l2.5-2.5l-2.5-2.5h-2.3L211.8,21.3z M206.9,21.3l-2.5,2.5h2.3l2.5-2.5l-2.5-2.5h-2.3
						L206.9,21.3z M202,21.3l-2.5,2.5h2.3l2.5-2.5l-2.5-2.5h-2.3L202,21.3z M197.1,21.3l-2.5,2.5h2.3l2.5-2.5l-2.5-2.5h-2.3
						L197.1,21.3z M192.2,21.3l-2.5,2.5h2.3l2.5-2.5l-2.5-2.5h-2.3L192.2,21.3z M187.3,21.3l-2.5,2.5h2.3l2.5-2.5l-2.5-2.5h-2.3
						L187.3,21.3z"/>
					<path class="st2" d="M322.7,39.1l-7,7h6.4l7-7l-7-7h-6.4L322.7,39.1z M309,39.1l-7,7h6.4l7-7l-7-7H302L309,39.1z M295.2,39.1
						l-7,7h6.4l7-7l-7-7h-6.4L295.2,39.1z M281.4,39.1l-7,7h6.4l7-7l-7-7h-6.4L281.4,39.1z M267.7,39.1l-7,7h6.4l7-7l-7-7h-6.4
						L267.7,39.1z M253.9,39.1l-7,7h6.4l7-7l-7-7h-6.4L253.9,39.1z"/>
				</g>
			</g>
		</g>
	</g>
	<g>
		<g class="st3">
			<path d="M164.3,46.7l-6.3-5.8c-0.3-0.3-0.5-0.6-0.5-1c0-0.2,0.1-0.4,0.2-0.6c0.1-0.2,0.2-0.4,0.4-0.5s0.4-0.3,0.6-0.3
				c0.2-0.1,0.5-0.1,0.8-0.1c0.6,0,1.1,0.2,1.5,0.5l5.9,5.5l5.9-5.5c0.4-0.3,0.9-0.5,1.5-0.5c0.3,0,0.6,0,0.8,0.1s0.5,0.2,0.6,0.3
				s0.3,0.3,0.4,0.5c0.1,0.2,0.2,0.4,0.2,0.6c0,0.4-0.2,0.7-0.5,1l-6.3,5.8l6.4,5.9c0.3,0.3,0.4,0.6,0.4,1c0,0.2-0.1,0.4-0.2,0.6
				c-0.1,0.2-0.3,0.4-0.4,0.5c-0.2,0.1-0.4,0.3-0.6,0.3s-0.5,0.1-0.8,0.1c-0.6,0-1-0.2-1.5-0.5l-5.9-5.5l-6,5.5
				c-0.4,0.3-0.9,0.5-1.4,0.5c-0.3,0-0.6,0-0.8-0.1s-0.5-0.2-0.6-0.3c-0.2-0.1-0.3-0.3-0.4-0.5c-0.1-0.2-0.2-0.4-0.2-0.6
				c0-0.4,0.1-0.7,0.4-1L164.3,46.7z"/>
		</g>
		<g>
			<g>
				<path class="st4" d="M163.3,45.7l-6.3-5.8c-0.3-0.3-0.5-0.6-0.5-1c0-0.2,0.1-0.4,0.2-0.6c0.1-0.2,0.2-0.4,0.4-0.5
					s0.4-0.3,0.6-0.3c0.2-0.1,0.5-0.1,0.8-0.1c0.6,0,1.1,0.2,1.5,0.5l5.9,5.5l5.9-5.5c0.4-0.3,0.9-0.5,1.5-0.5c0.3,0,0.6,0,0.8,0.1
					s0.5,0.2,0.6,0.3s0.3,0.3,0.4,0.5c0.1,0.2,0.2,0.4,0.2,0.6c0,0.4-0.2,0.7-0.5,1l-6.3,5.8l6.4,5.9c0.3,0.3,0.4,0.6,0.4,1
					c0,0.2-0.1,0.4-0.2,0.6c-0.1,0.2-0.3,0.4-0.4,0.5c-0.2,0.1-0.4,0.3-0.6,0.3s-0.5,0.1-0.8,0.1c-0.6,0-1-0.2-1.5-0.5l-5.9-5.5
					l-6,5.5c-0.4,0.3-0.9,0.5-1.4,0.5c-0.3,0-0.6,0-0.8-0.1s-0.5-0.2-0.6-0.3c-0.2-0.1-0.3-0.3-0.4-0.5c-0.1-0.2-0.2-0.4-0.2-0.6
					c0-0.4,0.1-0.7,0.4-1L163.3,45.7z"/>
			</g>
		</g>
	</g>
</g>
<g>
	<g class="st5">
		<path d="M44.2,12.2c0.7,0,1.3,0.6,1.3,1.3s-0.6,1.3-1.3,1.3H32.5c-1,0-1.7,0.8-1.7,1.7v4.3h12.1c0.7,0,1.3,0.6,1.3,1.3
			c0,0.8-0.6,1.3-1.3,1.3H30.8v7.7c0,0.7-0.6,1.3-1.3,1.3c-0.7,0-1.3-0.6-1.3-1.3V16.6c0-2.4,2-4.4,4.4-4.4
			C32.6,12.2,44.2,12.2,44.2,12.2z"/>
		<path d="M63.4,12.3c2.4,0,4.4,2,4.4,4.4v11.6c0,2.4-2,4.4-4.4,4.4H52c-2.4,0-4.4-2-4.4-4.4V16.6c0-2.4,2-4.4,4.4-4.4L63.4,12.3
			L63.4,12.3z M50.3,28.2c0,0.9,0.8,1.7,1.7,1.7h11.4c1,0,1.7-0.8,1.7-1.7V16.6c0-0.9-0.8-1.7-1.7-1.7H52c-0.9,0-1.7,0.8-1.7,1.7
			V28.2z"/>
		<path d="M89.8,16.6v4.1c0,2.4-1.9,4.3-4.3,4.4c0.6,1.4,1.6,3.9,2.3,5.6c0.1,0.2,0.1,0.3,0.1,0.5c0,0.5-0.4,1-0.8,1.2
			c-0.2,0.1-0.3,0.1-0.5,0.1c-0.5,0-1-0.3-1.2-0.8l-2.6-6.6h-9v6.1c0,0.7-0.6,1.3-1.3,1.3c-0.7,0-1.3-0.6-1.3-1.3V16.6
			c0-2.4,2-4.4,4.4-4.4h10C87.8,12.2,89.8,14.2,89.8,16.6z M87.2,16.6c0-0.9-0.8-1.7-1.8-1.7h-10c-1,0-1.7,0.8-1.7,1.7v5.9h11.8
			c1,0,1.8-0.8,1.8-1.7v-4.2H87.2z"/>
		<path d="M109.5,12.3c0.7,0,1.3,0.6,1.3,1.3s-0.6,1.3-1.3,1.3H97.4c-1,0-1.8,0.8-1.8,1.7v2.7c0,0.9,0.8,1.7,1.8,1.7h9.1
			c2.4,0,4.3,2,4.3,4.4v2.7c0,2.4-2,4.4-4.3,4.4H94.3c-0.7,0-1.3-0.6-1.3-1.3c0-0.7,0.6-1.3,1.3-1.3h12.1c0.9,0,1.7-0.8,1.7-1.7
			v-2.7c0-1-0.8-1.7-1.7-1.7h-9.1c-2.4,0-4.4-2-4.4-4.4v-2.7c0-2.4,2-4.4,4.4-4.4C97.3,12.3,109.5,12.3,109.5,12.3z"/>
		<path d="M128.2,12.2c2.4,0,4.4,2,4.4,4.4v14.6c0,0.7-0.6,1.3-1.3,1.3s-1.3-0.6-1.3-1.3v-7.7h-13v7.7c0,0.7-0.6,1.3-1.3,1.3
			c-0.7,0-1.3-0.6-1.3-1.3V16.6c0-2.4,2-4.4,4.4-4.4C118.8,12.2,128.2,12.2,128.2,12.2z M117,20.9h12.9v-4.3c0-1-0.8-1.7-1.7-1.7
			h-9.5c-1,0-1.7,0.8-1.7,1.7V20.9z"/>
		<path d="M153.8,12.2c0.7,0,1.3,0.6,1.3,1.3s-0.6,1.3-1.3,1.3h-13.4c-1,0-1.8,0.8-1.8,1.9V28c0,1,0.8,1.9,1.8,1.9h10.2
			c1,0,1.9-0.8,1.9-1.9v-4.5h-9.4c-0.7,0-1.3-0.6-1.3-1.3s0.6-1.3,1.3-1.3h10.7c0.7,0,1.3,0.5,1.3,1.3V28c0,2.5-2,4.5-4.5,4.5h-10.2
			c-2.5,0-4.5-2-4.5-4.5V16.8c0-2.5,2-4.5,4.5-4.5L153.8,12.2L153.8,12.2z"/>
		<path d="M174.3,29.9c0.7,0,1.3,0.6,1.3,1.3c0,0.7-0.6,1.3-1.3,1.3h-11.5c-2.4,0-4.4-2-4.4-4.4V16.6c0-2.4,2-4.4,4.4-4.4h11.5
			c0.7,0,1.3,0.6,1.3,1.3s-0.6,1.3-1.3,1.3h-11.5c-0.9,0-1.7,0.8-1.7,1.7v4.3h13c0.7,0,1.3,0.6,1.3,1.3c0,0.7-0.6,1.3-1.3,1.3h-13
			v4.7c0,0.9,0.8,1.7,1.7,1.7L174.3,29.9L174.3,29.9z"/>
	</g>
	<g>
		<path class="st6" d="M43.5,11.6c0.7,0,1.3,0.6,1.3,1.3s-0.6,1.3-1.3,1.3H31.9c-1,0-1.7,0.8-1.7,1.7v4.3h12.1
			c0.7,0,1.3,0.6,1.3,1.3c0,0.8-0.6,1.3-1.3,1.3H30.1v7.7c0,0.7-0.6,1.3-1.3,1.3c-0.7,0-1.3-0.6-1.3-1.3V15.9c0-2.4,2-4.4,4.4-4.4
			h11.6V11.6z"/>
		<path class="st6" d="M62.8,11.6c2.4,0,4.4,2,4.4,4.4v11.6c0,2.4-2,4.4-4.4,4.4H51.4C49,32,47,30,47,27.6V15.9c0-2.4,2-4.4,4.4-4.4
			h11.4V11.6z M49.7,27.5c0,0.9,0.8,1.7,1.7,1.7h11.4c1,0,1.7-0.8,1.7-1.7V15.9c0-0.9-0.8-1.7-1.7-1.7H51.4c-0.9,0-1.7,0.8-1.7,1.7
			V27.5z"/>
		<path class="st6" d="M89.2,15.9V20c0,2.4-1.9,4.3-4.3,4.4c0.6,1.4,1.6,3.9,2.3,5.6c0.1,0.2,0.1,0.3,0.1,0.5c0,0.5-0.4,1-0.8,1.2
			c-0.2,0.1-0.3,0.1-0.5,0.1c-0.5,0-1-0.3-1.2-0.8l-2.6-6.6h-9v6.1c0,0.7-0.6,1.3-1.3,1.3c-0.7,0-1.3-0.6-1.3-1.3V15.9
			c0-2.4,2-4.4,4.4-4.4h10C87.2,11.6,89.2,13.5,89.2,15.9z M86.6,15.9c0-0.9-0.8-1.7-1.8-1.7h-10c-1,0-1.7,0.8-1.7,1.7v5.9h11.8
			c1,0,1.8-0.8,1.8-1.7v-4.2H86.6z"/>
		<path class="st6" d="M108.9,11.6c0.7,0,1.3,0.6,1.3,1.3s-0.6,1.3-1.3,1.3H96.8c-1,0-1.8,0.8-1.8,1.7v2.7c0,0.9,0.8,1.7,1.8,1.7
			h9.1c2.4,0,4.3,2,4.3,4.4v2.7c0,2.4-2,4.4-4.3,4.4H93.7c-0.7,0-1.3-0.6-1.3-1.3c0-0.7,0.6-1.3,1.3-1.3h12.1c0.9,0,1.7-0.8,1.7-1.7
			v-2.7c0-1-0.8-1.7-1.7-1.7h-9.1c-2.4,0-4.4-2-4.4-4.4V16c0-2.4,2-4.4,4.4-4.4H108.9z"/>
		<path class="st6" d="M127.5,11.6c2.4,0,4.4,2,4.4,4.4v14.6c0,0.7-0.6,1.3-1.3,1.3s-1.3-0.6-1.3-1.3v-7.7h-12.9v7.7
			c0,0.7-0.6,1.3-1.3,1.3c-0.7,0-1.3-0.6-1.3-1.3V15.9c0-2.4,2-4.4,4.4-4.4h9.3V11.6z M116.3,20.2h12.9v-4.3c0-1-0.8-1.7-1.7-1.7
			H118c-1,0-1.7,0.8-1.7,1.7V20.2z"/>
		<path class="st6" d="M153.2,11.6c0.7,0,1.3,0.6,1.3,1.3s-0.6,1.3-1.3,1.3h-13.4c-1,0-1.8,0.8-1.8,1.9v11.3c0,1,0.8,1.9,1.8,1.9
			H150c1,0,1.9-0.8,1.9-1.9v-4.5h-9.4c-0.7,0-1.3-0.6-1.3-1.3s0.6-1.3,1.3-1.3h10.7c0.7,0,1.3,0.5,1.3,1.3v5.8c0,2.5-2,4.5-4.5,4.5
			h-10.2c-2.5,0-4.5-2-4.5-4.5V16.1c0-2.5,2-4.5,4.5-4.5H153.2z"/>
		<path class="st6" d="M173.7,29.3c0.7,0,1.3,0.6,1.3,1.3c0,0.7-0.6,1.3-1.3,1.3h-11.5c-2.4,0-4.4-2-4.4-4.4V15.9
			c0-2.4,2-4.4,4.4-4.4h11.5c0.7,0,1.3,0.6,1.3,1.3s-0.6,1.3-1.3,1.3h-11.5c-0.9,0-1.7,0.8-1.7,1.7v4.3h13c0.7,0,1.3,0.6,1.3,1.3
			c0,0.7-0.6,1.3-1.3,1.3h-13v4.7c0,0.9,0.8,1.7,1.7,1.7h11.5V29.3z"/>
	</g>
</g>
<g>
	<path class="st4" d="M195.4,34.1c0.7,0,1.3,0.6,1.3,1.3s-0.6,1.3-1.3,1.3h-13.2c-1,0-1.8,0.8-1.8,1.8v11.1c0,1,0.8,1.8,1.8,1.8h10
		c1,0,1.8-0.8,1.8-1.8v-4.4h-9.3c-0.7,0-1.3-0.6-1.3-1.3c0-0.7,0.6-1.2,1.3-1.2h10.6c0.7,0,1.3,0.5,1.3,1.2v5.7c0,2.4-2,4.4-4.4,4.4
		h-10c-2.4,0-4.4-2-4.4-4.4V38.5c0-2.4,2-4.4,4.4-4.4H195.4z"/>
	<path class="st4" d="M212.8,41.1c2.3,0,4.2,1.9,4.2,4.2v4.6c0,2.3-1.9,4.2-4.2,4.2h-8.6c-2.3,0-4.2-1.9-4.2-4.2v-4.6
		c0-2.3,1.9-4.2,4.2-4.2H212.8z M202.5,49.9c0,0.9,0.8,1.7,1.6,1.7h8.6c0.9,0,1.7-0.8,1.7-1.7v-4.7c0-0.9-0.8-1.7-1.7-1.7h-8.6
		c-0.9,0-1.6,0.8-1.6,1.7V49.9z"/>
	<path class="st4" d="M219.3,36c0-0.7,0.5-1.2,1.3-1.2c0.7,0,1.2,0.5,1.2,1.2v14c0,0.9,0.8,1.7,1.6,1.7h2.3c0.7,0,1.2,0.6,1.2,1.2
		c0,0.6-0.6,1.2-1.2,1.2h-2.3c-2.3,0-4.2-1.9-4.2-4.2V36z"/>
	<path class="st4" d="M242.2,34.7c0.7,0,1.2,0.5,1.2,1.2v14c0,2.3-1.8,4.2-4.1,4.2h-6.7c-2.3,0-4.1-1.9-4.1-4.2v-4.6
		c0-2.3,1.8-4.2,4.1-4.2h8.4V36C241,35.3,241.5,34.7,242.2,34.7z M230.9,49.9c0,0.9,0.8,1.7,1.6,1.7h6.7c1,0,1.7-0.8,1.7-1.7v-6.4
		h-8.4c-0.9,0-1.6,0.8-1.6,1.7V49.9z"/>
</g>
</svg>
