<?xml version="1.0" encoding="utf-8"?>
<!-- Generator: Adobe Illustrator 24.0.1, SVG Export Plug-In . SVG Version: 6.00 Build 0)  -->
<svg version="1.1" id="Layer_1" xmlns="http://www.w3.org/2000/svg" xmlns:xlink="http://www.w3.org/1999/xlink" x="0px" y="0px"
	 viewBox="0 0 45 45" style="enable-background:new 0 0 45 45;" xml:space="preserve">
<style type="text/css">
	.st0{display:none;}
	.st1{fill:#706792;}
</style>
<path class="st1" d="M41,32.4l-6.8-11.8L27.3,8.7c-2.1-3.7-7.5-3.7-9.6,0l-6.8,11.8L4,32.4c-2.2,3.7,0.5,8.3,4.8,8.3h13.7h13.7
	C40.5,40.7,43.1,36.1,41,32.4z M23.7,35.9c-0.3,0.3-0.7,0.5-1.2,0.5c-0.5,0.1-0.9-0.1-1.2-0.5c-0.3-0.3-0.5-0.8-0.5-1.2
	c0-0.5,0.2-0.9,0.5-1.2S22,33,22.5,33s0.9,0.2,1.2,0.5s0.5,0.7,0.5,1.2S24,35.6,23.7,35.9z M24.2,28.6c-0.1,2.8-3.3,2.8-3.3,0
	l-0.5-13.1c0-3.2,4.3-3.2,4.3,0L24.2,28.6z"/>
</svg>
