<?xml version="1.0" encoding="utf-8"?>
<!-- Generator: Adobe Illustrator 24.0.1, SVG Export Plug-In . SVG Version: 6.00 Build 0)  -->
<svg version="1.1" id="Layer_1" xmlns="http://www.w3.org/2000/svg" xmlns:xlink="http://www.w3.org/1999/xlink" x="0px" y="0px"
     viewBox="0 0 45 45" style="enable-background:new 0 0 45 45;" xml:space="preserve">
<style type="text/css">
	.st0{display:none;}
	.st1{fill:#F66BC6;}
	.st2{fill:#FFFFFF;}
</style>
    <g id="Layer_1_1_" class="st0">
</g>
    <g id="Layer_2_1_" class="st0">
</g>
    <g id="Layer_5">
</g>
    <g id="Layer_6" class="st0">
</g>
    <g id="Layer_4">
</g>
    <g id="Layer_3" class="st0">
</g>
    <g id="Layer_7">
	<g>
		<g>
			<g>
				<g>
					<g>
						<g>
							<g>
								<path class="st1" d="M24.7,35.5c-0.2,1.3-1.5,2.1-3,1.9c-1.4-0.2-2.4-1.5-2.2-2.8c0.2-1.3,1.5-2.1,3-1.9
									C23.9,33,24.9,34.2,24.7,35.5z M23.4,35.3c0.1-0.6-0.4-1.2-1.1-1.4c-0.7-0.1-1.4,0.3-1.5,0.9c-0.1,0.6,0.4,1.2,1.1,1.4
									C22.6,36.3,23.3,35.9,23.4,35.3z"/>
							</g>
						</g>
					</g>
				</g>
                <g>
					<g>
						<g>
							<g>
								<path class="st1" d="M5.5,29.5c1.4,0.2,2.4,1.5,2.2,2.8c-0.2,1.3-1.5,2.1-3,1.9c-1.4-0.2-2.4-1.5-2.2-2.8
									C2.7,30.2,4,29.3,5.5,29.5z M3.8,31.7c-0.1,0.6,0.4,1.2,1.1,1.4c0.7,0.1,1.4-0.3,1.5-0.9C6.5,31.6,6,31,5.3,30.8
									C4.6,30.6,3.9,31,3.8,31.7z"/>
							</g>
						</g>
					</g>
				</g>
                <g>
					<g>
						<g>
							<g>
								<path class="st1" d="M42.5,9.5c-0.1,0.9-1,1.4-2,1.3c-0.7-0.1-1.3-0.6-1.5-1.3l-1.3-0.2L25.2,31.9l0,0
									c-0.1,0.5-0.5,0.8-1,0.7L5.5,29.5l-1.7-0.3c-0.5-0.1-0.8-0.5-0.7-1s0.5-0.8,1-0.7l19.6,3.3l3.5-6.3L5.3,20.8
									c-0.4-0.1-0.6-0.3-0.8-0.6c-0.1-0.1-0.1-0.2-0.1-0.4l-1.1-11l0,0V8.7V8.6l0,0c0,0,0,0,0-0.1V8.4c0,0,0-0.1,0.1-0.1l0,0
									C3.6,8,4,7.8,4.4,7.8l0,0l0,0l29.2,4.9l2.7-4.9c0.2-0.3,0.6-0.5,1-0.4l0,0l2.5,0.4c0.3-0.2,0.7-0.2,1.1-0.2
									C42,7.8,42.7,8.6,42.5,9.5z M32.7,14.4l-3.2-0.5l-0.9,1.7l3.1,0.5L32.7,14.4z M30.8,17.7l-3.1-0.5l-0.8,1.6l3.1,0.5
									L30.8,17.7z M23,21.9l0.9-1.8l-3.2-0.5l-0.8,1.8L23,21.9z M17.9,21l0.8-1.8l-3.2-0.5L15,20.6L17.9,21z M13,20.2l0.5-1.8
									l-3.4-0.6l-0.2,1.9L13,20.2z M8,19.4l0.2-1.9l-2-0.3l0.2,1.9L8,19.4z M17.2,11.8l-0.4,1.7l4.1,0.7l0.7-1.7L17.2,11.8z
									 M23.6,12.9l-0.7,1.7l3.7,0.6l0.9-1.7L23.6,12.9z M5.9,15.3l2.3,0.4L8.4,14l-2.6-0.4L5.9,15.3z M10.2,16l3.7,0.6l0.4-1.7
									l-4-0.7L10.2,16z M15.9,17l3.5,0.6l0.7-1.6l-3.8-0.6L15.9,17z M15.2,11.5l-4.5-0.8l-0.1,1.8l4.2,0.7L15.2,11.5z M8.7,10.4
									L5.4,9.8l0.2,1.9h0.1l2.8,0.5L8.7,10.4z M24.8,18.4l0.8-1.6l-3.5-0.6l-0.7,1.6L24.8,18.4z M28,22.7l1-1.7l-3-0.5l-1,1.7
									L28,22.7z"/>
							</g>
						</g>
					</g>
				</g>
			</g>
		</g>
	</g>
        <g>
		<g>
			<g>
				<path class="st1" d="M3.9,8.7l5.7-0.8c0.4-0.1,0.8-0.1,1.2-0.1c0.9,0,1.6,0.2,2.3,0.5c1,0.5,1.6,1.4,1.7,2.5
					c0.1,0.7,0,1.3-0.2,1.8c0,0.1-0.1,0.1-0.1,0.2c0.2,0.1,0.3,0.2,0.5,0.4c0.5,0.5,0.9,1.2,1,2c0.2,1.2-0.2,2.2-1,3
					c-0.8,0.7-1.8,1.1-3.3,1.3l-6,0.8L3.9,8.7z M9.2,16.1l1.6-0.2c0.6-0.1,0.7-0.2,0.8-0.2v-0.2c0,0-0.1-0.1-0.4-0.1
					c-0.1,0-0.3,0-0.4,0l-1.6,0.2L9.2,16.1z M8.6,12.1l1.2-0.2c0.5-0.1,0.7-0.2,0.7-0.2v-0.1l0,0c0,0-0.1,0-0.3,0
					c-0.1,0-0.2,0-0.4,0l-1.2,0.2V12.1z"/>
			</g>
            <g>
				<path class="st1" d="M20.4,18.4c-1.2,0-2.2-0.3-3.1-1c-1.1-0.8-1.8-2.1-2-3.8l-0.9-6.4l4.2-0.6l0.9,6.3c0.2,1.5,0.8,1.5,1.1,1.5
					c0.1,0,0.2,0,0.3,0c0.6-0.1,0.8-0.3,0.8-0.4c0.2-0.3,0.2-0.7,0.1-1.4l-0.9-6.3l4.2-0.6l0.9,6.4c0.2,1.7-0.1,3.1-0.9,4.2
					c-0.8,1.1-2.1,1.8-3.7,2C21,18.4,20.7,18.4,20.4,18.4z"/>
			</g>
            <g>
				<polygon class="st1" points="28.7,12.9 23.2,6 27.7,5.3 30.3,8.5 31.9,4.8 36.4,4.2 32.9,12.4 33.5,16.5 29.3,17.1 				"/>
			</g>
		</g>
	</g>
        <g>
		<path class="st2" d="M14.2,13.9c0.4,0.4,0.6,0.9,0.7,1.5c0.1,0.8-0.1,1.5-0.7,2.1c-0.6,0.5-1.5,0.9-2.8,1.1l-5,0.7L5,9.6l4.7-0.7
			c1.2-0.2,2.1-0.1,2.8,0.3c0.7,0.4,1.1,0.9,1.2,1.7c0.1,0.5,0,0.9-0.2,1.3c-0.2,0.4-0.5,0.7-0.8,1C13.3,13.3,13.8,13.6,14.2,13.9z
			 M7.5,10.9l0.3,2.3l2.2-0.3c0.6-0.1,1-0.2,1.2-0.5c0.3-0.2,0.4-0.5,0.3-0.9s-0.2-0.6-0.5-0.8c-0.3-0.1-0.7-0.2-1.3-0.1L7.5,10.9z
			 M12.2,16.4c0.3-0.2,0.4-0.6,0.3-1c-0.1-0.8-0.8-1.1-2-1L8,14.9l0.3,2.4l2.6-0.4C11.5,16.8,12,16.7,12.2,16.4z"/>
            <path class="st2" d="M17.9,16.7C17,16,16.5,15,16.3,13.5l-0.7-5.4l2.2-0.3l0.7,5.3c0.2,1.7,1.1,2.5,2.5,2.3
			c0.7-0.1,1.2-0.4,1.5-0.9s0.4-1.2,0.3-2l-0.7-5.3l2.2-0.3l0.7,5.4c0.2,1.4,0,2.6-0.7,3.4c-0.7,0.9-1.7,1.4-3.1,1.6
			S18.7,17.3,17.9,16.7z"/>
            <path class="st2" d="M31.9,12.2l0.5,3.4L30.1,16l-0.5-3.5L25,6.8l2.4-0.3l3.2,3.9l2-4.7l2.2-0.3L31.9,12.2z"/>
	</g>
</g>
</svg>
