<?xml version="1.0" encoding="utf-8"?>
<!-- Generator: Adobe Illustrator 24.0.1, SVG Export Plug-In . SVG Version: 6.00 Build 0)  -->
<svg version="1.1" id="Layer_1" focusable="false" xmlns="http://www.w3.org/2000/svg" xmlns:xlink="http://www.w3.org/1999/xlink"
     x="0px" y="0px" viewBox="0 0 576 512" enable-background="new 0 0 576 512" xml:space="preserve">
<g>
	<path fill="#fff" d="M552,64H159.2l52.4,256h293.1c11.2,0,20.9-7.8,23.4-18.7l47.3-208c2.9-12.9-5.2-25.8-18.1-28.7
		C555.6,64.2,553.8,64,552,64z"/>
    <path fill="#fff" d="M218.1,352h268.4c13.3,0,24,10.7,24,24c0,1.8-0.2,3.6-0.6,5.3l-5.5,24.3c27.8,13.5,39.5,47,26,74.8
		c-13.5,27.8-47,39.5-74.8,26c-27.8-13.5-39.5-47-26-74.8c2.8-5.8,6.6-11.1,11.2-15.6H231.2c22.1,21.6,22.5,57.1,0.8,79.2
		c-21.6,22.1-57.1,22.5-79.2,0.8c-22.1-21.6-22.5-57.1-0.8-79.2c3.6-3.7,7.7-6.8,12.1-9.4L93.9,64H24C10.7,64,0,53.3,0,40V24
		C0,10.7,10.7,0,24,0h102.5c11.4,0,21.2,8,23.5,19.2L218.1,352z"/>
</g>
</svg>
        <?xml version="1.0" encoding="utf-8"?>
        <!-- Generator: Adobe Illustrator 24.0.1, SVG Export Plug-In . SVG Version: 6.00 Build 0)  -->
<svg version="1.1" id="Layer_1" focusable="false" xmlns="http://www.w3.org/2000/svg" xmlns:xlink="http://www.w3.org/1999/xlink"
     x="0px" y="0px" viewBox="0 0 576 512" enable-background="new 0 0 576 512" xml:space="preserve">
<g>
	<path fill="#fff" d="M552,64H159.2l52.4,256h293.1c11.2,0,20.9-7.8,23.4-18.7l47.3-208c2.9-12.9-5.2-25.8-18.1-28.7
		C555.6,64.2,553.8,64,552,64z"/>
    <path fill="#fff" d="M218.1,352h268.4c13.3,0,24,10.7,24,24c0,1.8-0.2,3.6-0.6,5.3l-5.5,24.3c27.8,13.5,39.5,47,26,74.8
		c-13.5,27.8-47,39.5-74.8,26c-27.8-13.5-39.5-47-26-74.8c2.8-5.8,6.6-11.1,11.2-15.6H231.2c22.1,21.6,22.5,57.1,0.8,79.2
		c-21.6,22.1-57.1,22.5-79.2,0.8c-22.1-21.6-22.5-57.1-0.8-79.2c3.6-3.7,7.7-6.8,12.1-9.4L93.9,64H24C10.7,64,0,53.3,0,40V24
		C0,10.7,10.7,0,24,0h102.5c11.4,0,21.2,8,23.5,19.2L218.1,352z"/>
</g>
</svg>
