<?xml version="1.0" encoding="utf-8"?>
<!-- Generator: Adobe Illustrator 24.0.1, SVG Export Plug-In . SVG Version: 6.00 Build 0)  -->
<svg version="1.1" id="Layer_1" xmlns="http://www.w3.org/2000/svg" xmlns:xlink="http://www.w3.org/1999/xlink" x="0px" y="0px"
	 viewBox="0 0 45 45" style="enable-background:new 0 0 45 45;" xml:space="preserve">
<style type="text/css">
	.st0{display:none;}
	.st1{fill:#FFFFFF;}
</style>
<g id="Layer_6" class="st0">
</g>
<path class="st1" d="M22.5,0.7c-12,0-21.8,9.8-21.8,21.8s9.8,21.8,21.8,21.8s21.8-9.8,21.8-21.8S34.5,0.7,22.5,0.7z M33,13.8
	l-5.4,9.5l-5.5,9.4c-0.3,0.5-0.8,0.7-1.3,0.7s-1-0.3-1.3-0.7L14,23.1c-0.4-0.7-0.2-1.6,0.6-2c0.7-0.4,1.6-0.2,2,0.6l4.2,7.4l4.2-7.2
	l5.4-9.5c0.4-0.7,1.3-1,2-0.6C33.2,12.2,33.4,13.1,33,13.8z"/>
</svg>
