<?xml version="1.0" encoding="utf-8"?>
<!-- Generator: Adobe Illustrator 24.0.1, SVG Export Plug-In . SVG Version: 6.00 Build 0)  -->
<svg version="1.1" id="Capa_1" xmlns="http://www.w3.org/2000/svg" xmlns:xlink="http://www.w3.org/1999/xlink" x="0px" y="0px"
     viewBox="0 0 512 512" style="enable-background:new 0 0 512 512;" xml:space="preserve">
<style type="text/css">
	.st0{fill:#6C668E;}
</style>
    <g>
	<g>
		<path class="st0" d="M508.2,246c-4.6-5.1-114.5-125-252.2-125S8.4,240.9,3.8,246c-5.1,5.7-5.1,14.3,0,20
			c4.6,5.1,114.5,125,252.2,125s247.6-119.9,252.2-125C513.3,260.3,513.3,251.7,508.2,246z M256,361c-57.9,0-105-47.1-105-105
			s47.1-105,105-105s105,47.1,105,105S313.9,361,256,361z"/>
	</g>
</g>
    <g>
	<g>
		<path class="st0" d="M271,226c0-15.1,7.5-28.4,18.9-36.5c-10.2-5.2-21.6-8.5-33.9-8.5c-41.4,0-75,33.6-75,75s33.6,75,75,75
			c37,0,67.7-27,73.7-62.4C299.5,278.4,271,255.5,271,226z"/>
	</g>
</g>
</svg>
