<?xml version="1.0" encoding="utf-8"?>
<!-- Generator: Adobe Illustrator 22.0.1, SVG Export Plug-In . SVG Version: 6.00 Build 0)  -->
<svg version="1.1" id="_x31_" xmlns="http://www.w3.org/2000/svg" xmlns:xlink="http://www.w3.org/1999/xlink" x="0px" y="0px"
	 viewBox="0 0 441.064 82.075" style="enable-background:new 0 0 441.064 82.075;" xml:space="preserve">
<style type="text/css">
	.st0{fill-rule:evenodd;clip-rule:evenodd;fill:#FFFFFF;}
</style>
<polygon class="st0" points="125.565,59.93 132.706,59.93 138.346,47.783 168.656,47.783 171.657,41.291 134.217,41.291 "/>
<polygon class="st0" points="177.066,29.653 139.615,29.653 136.617,36.115 174.065,36.115 "/>
<polygon class="st0" points="389.566,59.84 389.566,59.93 427.015,59.84 430.015,53.378 399.756,53.378 402.347,47.783 
	432.657,47.783 435.655,41.291 398.215,41.291 "/>
<polygon class="st0" points="403.616,29.653 400.615,36.115 438.066,36.115 441.064,29.653 "/>
<path class="st0" d="M211.035,36.115l-7.958,17.263l-23.181-0.03l8-17.233H211.035L211.035,36.115z M218.195,36.115
	c1.4-3.022-0.808-6.462-4.138-6.462h-23.181c-4.35,0-8.299,2.513-10.13,6.462l-5.652,12.177h0.021l-2.348,5.086h-0.012l0,0
	c-1.388,3.022,0.811,6.462,4.141,6.462h23.181c4.35,0,8.299-2.513,10.13-6.462l7.97-17.263H218.195z"/>
<path class="st0" d="M346.056,29.653h-23.181c-4.35,0-8.299,2.513-10.13,6.462h30.289l-2.477,5.385h-30.31l-3.15,6.792l-2.339,5.086
	l0,0c0,0-2.941,6.343-2.983,6.432l-0.018,0.03h7.141l2.998-6.462l2.501-5.385h23.169l-5.481,11.847h7.031l11.061-23.725h0.021
	C351.594,33.093,349.386,29.653,346.056,29.653z"/>
<path class="st0" d="M367.504,41.291l-2.998,6.492h17.11l-1.421,3.052c-0.709,1.556-2.25,2.543-3.949,2.543l-18.061-0.03
	c-1.089,0-1.81-1.107-1.35-2.094l5.849-12.625c0.712-1.526,2.25-2.513,3.94-2.513l27.54-0.03c1.361-3.022,0,0,3.031-6.432h-30.358
	c-4.35,0-8.311,2.513-10.142,6.462l-5.639,12.177h0.009l-2.349,5.086l0,0c-1.4,3.022,0.811,6.462,4.141,6.462h23.169
	c4.35,0,8.311-2.513,10.139-6.462l5.571-12.087H367.504z"/>
<path class="st0" d="M297.687,41.5h-24.383l2.501-5.385h30.301c3.049-6.462-0.021,0,3.049-6.462h-30.358
	c-4.362,0-8.311,2.513-10.139,6.462l-2.992,6.612c-1.14,2.453,0.661,5.266,3.36,5.266h24.449l-2.489,5.385h-30.31h-0.009l0,0
	c-1.391,3.022,0,0-3.102,6.462h30.421c4.35,0,8.302-2.513,10.131-6.462c0,0,3.21-6.851,3.27-7.091
	C302.016,43.954,300.245,41.5,297.687,41.5z"/>
<path class="st0" d="M258.016,29.653h-30.412l-2.968,6.462h30.349l-2.48,5.385h-30.34l-3.108,6.792l-5.34,11.548h7.142l5.487-11.847
	h13.511l4.371,11.937h7.061l-4.281-11.937h3.27c3.88,0,7.399-2.304,8.979-5.834l2.872-6.043h0.018
	C263.545,33.093,261.346,29.653,258.016,29.653z"/>
<g>
	<defs>
		<polygon id="SVGID_1_" points="118.836,24.627 118.755,24.597 118.785,24.597 118.836,24.627 		"/>
	</defs>
	<clipPath id="SVGID_2_">
		<use xlink:href="#SVGID_1_"  style="overflow:visible;"/>
	</clipPath>
	<g style="clip-path:url(#SVGID_2_);">
		
			<image style="overflow:visible;" width="4" height="3" xlink:href="FC5D28F4DF73CFEA.jpg"  transform="matrix(0.5387 0 0 0.6184 117.6515 23.6689)">
		</image>
	</g>
</g>
<g>
	<defs>
		<polygon id="SVGID_3_" points="118.756,24.597 118.756,24.597 118.756,24.597 118.756,24.597 		"/>
	</defs>
	<clipPath id="SVGID_4_">
		<use xlink:href="#SVGID_3_"  style="overflow:visible;"/>
	</clipPath>
	<g style="clip-path:url(#SVGID_4_);">
		
			<image style="overflow:visible;" width="3" height="3" xlink:href="FC5D28F4DF73CFEE.jpg"  transform="matrix(0.6185 0 0 0.6184 117.6515 23.6689)">
		</image>
	</g>
</g>
<g>
	<defs>
		<path id="SVGID_5_" d="M119.614,25.105c-0.018,0-0.03,0-0.038-0.03c-0.15-0.089-0.491-0.329-0.718-0.418
			C119.127,24.776,119.375,24.926,119.614,25.105L119.614,25.105z"/>
	</defs>
	<clipPath id="SVGID_6_">
		<use xlink:href="#SVGID_5_"  style="overflow:visible;"/>
	</clipPath>
	<g style="clip-path:url(#SVGID_6_);">
		
			<image style="overflow:visible;" width="4" height="4" xlink:href="FC5D28F4DF73CFE9.jpg"  transform="matrix(0.5387 0 0 0.6134 118.2499 23.6687)">
		</image>
	</g>
</g>
<g>
	<defs>
		<path id="SVGID_7_" d="M119.647,25.135L119.647,25.135L119.647,25.135c-0.012,0-0.033-0.03-0.072-0.06
			c0.009,0.03,0.021,0.03,0.039,0.03L119.647,25.135L119.647,25.135z M118.837,24.627L118.837,24.627l-0.081-0.03l0,0
			L118.837,24.627L118.837,24.627L118.837,24.627z"/>
	</defs>
	<clipPath id="SVGID_8_">
		<use xlink:href="#SVGID_7_"  style="overflow:visible;"/>
	</clipPath>
	<g style="clip-path:url(#SVGID_8_);">
		
			<image style="overflow:visible;" width="5" height="4" xlink:href="FC5D28F4DF73CFEB.jpg"  transform="matrix(0.5507 0 0 0.6134 117.6515 23.6687)">
		</image>
	</g>
</g>
<path class="st0" d="M103.084,16.01c0.691-0.239,1.442,0.12,1.681,0.808l1.179,3.411c0,0-5.068-1.615-7.71-2.124L103.084,16.01
	L103.084,16.01z M119.647,25.135c-0.012,0-0.533-0.359-0.811-0.509l-8.512-4.338c-2.639-1.257-2.058-2.244-3.057-4.996
	c-0.341-0.927-0.832-2.004-1.502-3.082c-4.859-2.304-18.669-1.765-19.988-12.207c0,0-5.152,3.381-6.091,9.574l0,0
	C25.246,5.419,0.007,35.457,0.007,35.457c10.139-4.039,21.077-5.954,32.018-6.462C11.226,45.001,4.677,69.115,4.677,69.115
	s16.85-16.365,42.179-25.49c-6.63,9.365-10.472,21.93-8.901,38.445c0,0,13.029-49.724,74.849-37.697l0,0
	c0,0,2.262-6.612,8.102-13.374c0.368-0.419,0.577-1.047,0.619-1.765C121.646,27.618,120.895,26.093,119.647,25.135z"/>
<g>
	<defs>
		<path id="SVGID_9_" d="M37.957,82.075c-1.506-15.893,1.972-28.098,8.129-37.348C39.929,53.976,36.451,66.181,37.957,82.075
			c0,0,10.366-39.582,56.505-39.582c5.582,0,11.673,0.593,18.34,1.885l0,0c-6.667-1.291-12.758-1.885-18.34-1.885
			C48.323,42.493,37.957,82.075,37.957,82.075L37.957,82.075z"/>
	</defs>
	<clipPath id="SVGID_10_">
		<use xlink:href="#SVGID_9_"  style="overflow:visible;"/>
	</clipPath>
	<g transform="matrix(1 0 0 1 0 0)" style="clip-path:url(#SVGID_10_);">
		
			<image style="overflow:visible;" width="162" height="85" xlink:href="FC5D28F4DF73CFE8.jpg"  transform="matrix(0.4825 0 0 0.483 35.6757 41.6087)">
		</image>
	</g>
</g>
<g>
	<defs>
		<path id="SVGID_11_" d="M37.957,82.07c-1.506-15.889,1.972-28.088,8.129-37.338c0.266-0.39,0.509-0.753,0.775-1.104l0,0
			c9.813-3.56,20.91-6.015,32.805-6.015c9.591,0,19.691,1.611,30.036,5.535l0,0c0.155,0.052,0.31,0.117,0.443,0.182
			c0.399,0.143,0.775,0.299,1.152,0.442l0.2,0.065c0.155,0.052,0.288,0.117,0.421,0.182l0,0c0.288,0.117,0.598,0.234,0.886,0.351
			l0,0l0,0c-6.667-1.286-12.758-1.884-18.34-1.884C48.323,42.485,37.957,82.07,37.957,82.07L37.957,82.07z"/>
	</defs>
	<clipPath id="SVGID_12_">
		<use xlink:href="#SVGID_11_"  style="overflow:visible;"/>
	</clipPath>
	<g transform="matrix(1 0 0 1 0 0)" style="clip-path:url(#SVGID_12_);">
		
			<image style="overflow:visible;" width="162" height="95" xlink:href="FC5D28F4DF73CFF6.jpg"  transform="matrix(0.4825 0 0 0.4826 35.6757 36.8205)">
		</image>
	</g>
</g>
<g>
	<defs>
		<polygon id="SVGID_13_" points="112.805,44.373 112.805,44.373 112.805,44.373 112.805,44.373 		"/>
	</defs>
	<clipPath id="SVGID_14_">
		<use xlink:href="#SVGID_13_"  style="overflow:visible;"/>
	</clipPath>
	<g transform="matrix(1 0 0 1 0 -3.814697e-06)" style="clip-path:url(#SVGID_14_);">
		
			<image style="overflow:visible;" width="3" height="3" xlink:href="FC5D28F4DF73CFF9.jpg"  transform="matrix(0.6185 0 0 0.6184 111.9671 43.4149)">
		</image>
	</g>
</g>
<g>
	<defs>
		<path id="SVGID_15_" d="M4.68,69.118c0,0,6.552-24.116,27.35-40.123l0,0c2.07-0.094,4.173-0.118,6.242-0.118
			c7.596,0,15.125,0.59,22.297,1.582c-5.167,3.447-9.894,7.779-13.708,13.162l0,0l0,0l0,0C21.533,52.746,4.68,69.118,4.68,69.118
			L4.68,69.118z"/>
	</defs>
	<clipPath id="SVGID_16_">
		<use xlink:href="#SVGID_15_"  style="overflow:visible;"/>
	</clipPath>
	<g transform="matrix(1 0 0 1 0 0)" style="clip-path:url(#SVGID_16_);">
		
			<image style="overflow:visible;" width="119" height="86" xlink:href="FC5D28F4DF73CFFA.jpg"  transform="matrix(0.4834 0 0 0.4844 3.9624 28.1454)">
		</image>
	</g>
</g>
<g>
	<defs>
		<path id="SVGID_17_" d="M46.862,43.626L46.862,43.626c3.813-5.386,8.544-9.725,13.714-13.163l0,0
			c22.661,3.108,41.875,9.871,49.136,12.683c-10.359-3.918-20.461-5.536-30.05-5.536C67.781,37.61,56.671,40.063,46.862,43.626
			L46.862,43.626L46.862,43.626z"/>
	</defs>
	<clipPath id="SVGID_18_">
		<use xlink:href="#SVGID_17_"  style="overflow:visible;"/>
	</clipPath>
	<g transform="matrix(1 0 0 1 0 0)" style="clip-path:url(#SVGID_18_);">
		
			<image style="overflow:visible;" width="134" height="30" xlink:href="FC5D28F4DF73CFF8.jpg"  transform="matrix(0.4828 0 0 0.4908 46.147 29.6489)">
		</image>
	</g>
</g>
<g>
	<defs>
		<path id="SVGID_19_" d="M121.526,29.234c0.12-1.615-1.681-3.83-1.878-4.098l0,0l0,0c1.157,0.897,1.887,2.273,1.896,3.74
			C121.543,28.994,121.535,29.115,121.526,29.234L121.526,29.234z"/>
	</defs>
	<clipPath id="SVGID_20_">
		<use xlink:href="#SVGID_19_"  style="overflow:visible;"/>
	</clipPath>
	<g style="clip-path:url(#SVGID_20_);">
		
			<image style="overflow:visible;" width="7" height="11" xlink:href="7976EB644BBD0D2D.jpg"  transform="matrix(0.5643 0 0 0.5223 118.5491 24.2661)">
		</image>
	</g>
</g>
<g>
	<defs>
		<path id="SVGID_21_" d="M118.857,24.657L118.857,24.657c-0.012-0.03-0.012-0.03-0.021-0.03
			C118.845,24.627,118.857,24.627,118.857,24.657L118.857,24.657z"/>
	</defs>
	<clipPath id="SVGID_22_">
		<use xlink:href="#SVGID_21_"  style="overflow:visible;"/>
	</clipPath>
	<g style="clip-path:url(#SVGID_22_);">
		
			<image style="overflow:visible;" width="3" height="3" xlink:href="7976EB644BBD0D23.jpg"  transform="matrix(0.5187 0 0 0.6184 118.2499 23.6689)">
		</image>
	</g>
</g>
<g>
	<defs>
		<path id="SVGID_23_" d="M119.576,25.075c-0.009,0-0.018,0-0.018,0c-0.17-0.12-0.503-0.329-0.7-0.418l0,0
			C119.085,24.746,119.426,24.986,119.576,25.075L119.576,25.075z"/>
	</defs>
	<clipPath id="SVGID_24_">
		<use xlink:href="#SVGID_23_"  style="overflow:visible;"/>
	</clipPath>
	<g style="clip-path:url(#SVGID_24_);">
		
			<image style="overflow:visible;" width="4" height="4" xlink:href="7976EB644BBD0D25.jpg"  transform="matrix(0.5387 0 0 0.6134 118.2499 23.6687)">
		</image>
	</g>
</g>
<g>
	<defs>
		<path id="SVGID_25_" d="M119.647,25.135c-0.012,0-0.042-0.03-0.09-0.06c0,0,0.009,0,0.018,0
			C119.614,25.105,119.635,25.135,119.647,25.135L119.647,25.135z"/>
	</defs>
	<clipPath id="SVGID_26_">
		<use xlink:href="#SVGID_25_"  style="overflow:visible;"/>
	</clipPath>
	<g style="clip-path:url(#SVGID_26_);">
		
			<image style="overflow:visible;" width="3" height="3" xlink:href="7976EB644BBD0D27.jpg"  transform="matrix(0.6185 0 0 0.6184 118.5491 24.2672)">
		</image>
	</g>
</g>
<g>
	<defs>
		<path id="SVGID_27_" d="M0,35.459c0,0,22.06-26.265,69.445-26.265c3.299,0,6.701,0.115,10.24,0.386l0,0
			C80.613,3.385,85.767,0,85.767,0c1.34,10.447,15.154,9.904,19.998,12.213c0.653,1.076,1.168,2.152,1.512,3.082
			c0.996,2.748,0.412,3.74,3.058,4.994l8.487,4.336l0,0c0.034,0,0.034,0,0.034,0.031l0,0c0.206,0.094,0.516,0.303,0.687,0.418l0,0
			c0.069,0.031,0.103,0.063,0.103,0.063l0,0c-4.467-1.734-9.69-3.625-13.985-4.91l0,0c-3.883-1.16-6.907-1.975-7.525-2.121
			c-8.625-2.068-16.494-2.967-23.675-2.967c-18.28,0-32.128,5.924-42.437,13.853l0,0l0,0l0,0C21.098,29.504,10.137,31.416,0,35.459
			L0,35.459z M105.938,20.226L105.938,20.226l-1.168-3.406c-0.206-0.543-0.687-0.899-1.237-0.899c-0.172,0-0.309,0.031-0.447,0.084
			l-4.845,2.1l0,0C100.886,18.617,105.938,20.226,105.938,20.226L105.938,20.226L105.938,20.226z"/>
	</defs>
	<clipPath id="SVGID_28_">
		<use xlink:href="#SVGID_27_"  style="overflow:visible;"/>
	</clipPath>
	<g transform="matrix(1 0 0 1 0 0)" style="clip-path:url(#SVGID_28_);">
		
			<image style="overflow:visible;" width="252" height="76" xlink:href="7976EB644BBD0D24.jpg"  transform="matrix(0.4812 0 0 0.4851 -0.8245 -0.5747)">
		</image>
	</g>
</g>
<g>
	<defs>
		<polygon id="SVGID_29_" points="112.805,44.373 112.805,44.373 112.805,44.373 112.805,44.373 112.805,44.373 112.805,44.373 
			112.805,44.373 112.805,44.373 112.805,44.373 112.805,44.373 112.805,44.373 112.805,44.373 112.805,44.373 		"/>
	</defs>
	<clipPath id="SVGID_30_">
		<use xlink:href="#SVGID_29_"  style="overflow:visible;"/>
	</clipPath>
	<g transform="matrix(1 0 0 1 0 -3.814697e-06)" style="clip-path:url(#SVGID_30_);">
		
			<image style="overflow:visible;" width="3" height="3" xlink:href="7976EB644BBD0D3C.jpg"  transform="matrix(0.6185 0 0 0.6184 111.9671 43.4149)">
		</image>
	</g>
</g>
<g>
	<defs>
		<polygon id="SVGID_31_" points="112.805,44.373 112.805,44.373 112.805,44.373 112.805,44.373 		"/>
	</defs>
	<clipPath id="SVGID_32_">
		<use xlink:href="#SVGID_31_"  style="overflow:visible;"/>
	</clipPath>
	<g transform="matrix(1 0 0 1 0 -3.814697e-06)" style="clip-path:url(#SVGID_32_);">
		
			<image style="overflow:visible;" width="3" height="3" xlink:href="7976EB644BBD0D3D.jpg"  transform="matrix(0.6185 0 0 0.6184 111.9671 43.4149)">
		</image>
	</g>
</g>
<g>
	<defs>
		<polygon id="SVGID_33_" points="112.805,44.373 112.805,44.373 112.805,44.373 112.805,44.373 		"/>
	</defs>
	<clipPath id="SVGID_34_">
		<use xlink:href="#SVGID_33_"  style="overflow:visible;"/>
	</clipPath>
	<g transform="matrix(1 0 0 1 0 -3.814697e-06)" style="clip-path:url(#SVGID_34_);">
		
			<image style="overflow:visible;" width="3" height="3" xlink:href="7976EB644BBD0D3F.jpg"  transform="matrix(0.6185 0 0 0.6184 111.9671 43.4149)">
		</image>
	</g>
</g>
<g>
	<defs>
		<path id="SVGID_35_" d="M60.574,30.461c-7.186-0.987-14.693-1.584-22.307-1.584c-2.075,0-4.171,0.03-6.245,0.118l0,0l0,0
			c10.33-7.931,24.168-13.854,42.454-13.854c7.186,0,15.057,0.898,23.654,2.961c0.62,0.153,3.636,0.958,7.55,2.127
			c-1.54-0.331-3.016-0.602-4.384-0.721c-1.241-0.089-2.567-0.148-3.978-0.148C87.072,19.362,72.657,22.412,60.574,30.461
			L60.574,30.461L60.574,30.461z"/>
	</defs>
	<clipPath id="SVGID_36_">
		<use xlink:href="#SVGID_35_"  style="overflow:visible;"/>
	</clipPath>
	<g transform="matrix(1 0 0 1 1.907349e-06 0)" style="clip-path:url(#SVGID_36_);">
		
			<image style="overflow:visible;" width="156" height="35" xlink:href="7976EB644BBD0D3B.jpg"  transform="matrix(0.4838 0 0 0.4976 31.1879 14.0906)">
		</image>
	</g>
</g>
<g>
	<defs>
		<polygon id="SVGID_37_" points="112.805,44.373 112.805,44.373 112.805,44.373 112.805,44.373 112.805,44.373 		"/>
	</defs>
	<clipPath id="SVGID_38_">
		<use xlink:href="#SVGID_37_"  style="overflow:visible;"/>
	</clipPath>
	<g transform="matrix(1 0 0 1 0 -3.814697e-06)" style="clip-path:url(#SVGID_38_);">
		
			<image style="overflow:visible;" width="3" height="3" xlink:href="7976EB644BBD0D26.jpg"  transform="matrix(0.6185 0 0 0.6184 111.9671 43.4149)">
		</image>
	</g>
</g>
<g>
	<defs>
		<polygon id="SVGID_39_" points="112.805,44.373 112.805,44.373 112.805,44.373 112.805,44.373 112.805,44.373 		"/>
	</defs>
	<clipPath id="SVGID_40_">
		<use xlink:href="#SVGID_39_"  style="overflow:visible;"/>
	</clipPath>
	<g transform="matrix(1 0 0 1 0 -3.814697e-06)" style="clip-path:url(#SVGID_40_);">
		
			<image style="overflow:visible;" width="3" height="3" xlink:href="7976EB644BBD0D58.jpg"  transform="matrix(0.6185 0 0 0.6184 111.9671 43.4149)">
		</image>
	</g>
</g>
<g>
	<defs>
		<polygon id="SVGID_41_" points="112.805,44.373 112.805,44.373 112.805,44.373 112.805,44.373 112.805,44.373 		"/>
	</defs>
	<clipPath id="SVGID_42_">
		<use xlink:href="#SVGID_41_"  style="overflow:visible;"/>
	</clipPath>
	<g transform="matrix(1 0 0 1 0 -3.814697e-06)" style="clip-path:url(#SVGID_42_);">
		
			<image style="overflow:visible;" width="3" height="3" xlink:href="7976EB644BBD0D5B.jpg"  transform="matrix(0.6185 0 0 0.6184 111.9671 43.4149)">
		</image>
	</g>
</g>
<g>
	<defs>
		<path id="SVGID_43_" d="M112.801,44.37L112.801,44.37L112.801,44.37L112.801,44.37L112.801,44.37L112.801,44.37L112.801,44.37
			L112.801,44.37L112.801,44.37c0,0-0.321-0.113-0.891-0.355l0,0l0,0c-0.143-0.06-0.267-0.121-0.428-0.181l-0.178-0.061
			c-0.392-0.151-0.767-0.295-1.159-0.446c-0.125-0.061-0.285-0.121-0.446-0.182l0,0c-7.255-2.814-26.471-9.569-49.127-12.685l0,0
			l0,0c12.086-8.049,26.506-11.097,36.756-11.097c1.39,0,2.727,0.061,3.957,0.151c1.373,0.113,2.852,0.386,4.385,0.719l0,0
			c4.278,1.286,9.501,3.169,13.975,4.902l0,0c0.196,0.272,1.996,2.481,1.872,4.1l0,0c-0.036,0.719-0.249,1.346-0.606,1.762
			C115.083,37.759,112.819,44.34,112.801,44.37L112.801,44.37z"/>
	</defs>
	<clipPath id="SVGID_44_">
		<use xlink:href="#SVGID_43_"  style="overflow:visible;"/>
	</clipPath>
	<g style="clip-path:url(#SVGID_44_);">
		
			<image style="overflow:visible;" width="130" height="55" xlink:href="7976EB644BBD0D59.jpg"  transform="matrix(0.4839 0 0 0.4854 59.6102 18.5757)">
		</image>
	</g>
</g>
</svg>
