<?xml version="1.0" encoding="utf-8"?>
<!-- Generator: Adobe Illustrator 24.0.1, SVG Export Plug-In . SVG Version: 6.00 Build 0)  -->
<svg version="1.1" id="Layer_1" xmlns="http://www.w3.org/2000/svg" xmlns:xlink="http://www.w3.org/1999/xlink" x="0px" y="0px"
     viewBox="0 0 30.5 29.7" style="enable-background:new 0 0 30.5 29.7;" xml:space="preserve">
<style type="text/css">
	.st0{fill:#AC9BFB;}
</style>
    <g>
	<g>
		<path class="st0" d="M28.5,21.4h-5.1c-2,0-3.6-1.7-3.6-3.7c0-2,1.6-3.6,3.6-3.6h5.1V21.4z M23.4,15.1c-1.4,0-2.6,1.2-2.6,2.6
			c0,1.5,1.2,2.7,2.6,2.7h4.1v-5.3H23.4z"/>
	</g>
        <path class="st0" d="M6.1,23.2h0.6c0.1,0,0.2-0.1,0.2-0.2v-1.6c0-0.1-0.1-0.2-0.2-0.2H6.1c-0.1,0-0.2,0.1-0.2,0.2V23
		C5.9,23.1,6,23.2,6.1,23.2z"/>
        <path class="st0" d="M6.1,18.5h0.6c0.1,0,0.2-0.1,0.2-0.2v-1.6c0-0.1-0.1-0.2-0.2-0.2H6.1c-0.1,0-0.2,0.1-0.2,0.2v1.6
		C5.9,18.4,6,18.5,6.1,18.5z"/>
        <path class="st0" d="M6.1,13.8h0.6c0.1,0,0.2-0.1,0.2-0.2V12c0-0.1-0.1-0.2-0.2-0.2H6.1c-0.1,0-0.2,0.1-0.2,0.2v1.6
		C5.9,13.7,6,13.8,6.1,13.8z"/>
</g>
    <path class="st0" d="M14.5,1L14.5,1L20,6.5c0.1,0.1,0.1,0.3,0,0.5l-1.3,1.3c-0.1,0.1-0.3,0.1-0.5,0l-2-2V15c0,0.2-0.1,0.3-0.3,0.3
	h-2.6c-0.2,0-0.3-0.1-0.3-0.3V6.2l-2,2c-0.1,0.1-0.3,0.1-0.5,0L9,6.9C8.9,6.8,8.9,6.6,9,6.5L14.5,1z"/>
    <path class="st0" d="M25.5,7.1H21v0c-0.2,0-0.3,0.1-0.3,0.3v0.4c0,0.2,0.1,0.3,0.3,0.3v0h4.4c1.1,0,2,0.9,2,2v15.4c0,1.1-0.9,2-2,2
	H5.1c-1.1,0-2-0.9-2-2V10.1c0-1.1,0.9-2,2-2H8v0c0,0,0,0,0,0c0.2,0,0.3-0.1,0.3-0.3V7.4c0-0.2-0.1-0.3-0.3-0.3c0,0,0,0,0,0v0H5.1
	c-1.7,0-3,1.3-3,3v15.4c0,1.7,1.3,3,3,3h20.4c1.7,0,3-1.3,3-3V10.1C28.5,8.4,27.1,7.1,25.5,7.1z"/>
</svg>
